<?xml version="1.0" encoding="UTF-8"?>
<svg version="1.1" xmlns="http://www.w3.org/2000/svg" width="512" height="512">
<path d="M0 0 C1.42207111 -0.00761181 1.42207111 -0.00761181 2.87287092 -0.0153774 C3.91137206 -0.01587516 4.94987319 -0.01637292 6.01984406 -0.01688576 C7.12552121 -0.02126801 8.23119836 -0.02565027 9.37038088 -0.03016531 C13.08886413 -0.04355866 16.80732367 -0.04973344 20.5258255 -0.0558567 C23.18671599 -0.06375732 25.84760345 -0.07202131 28.50849152 -0.08063698 C36.50397778 -0.10514458 44.49947022 -0.1197867 52.49498248 -0.13269705 C54.75447362 -0.13641049 57.01396414 -0.14038361 59.27345467 -0.14444971 C73.31342074 -0.1696902 87.35338783 -0.19173696 101.39337158 -0.20417786 C104.64455417 -0.20710742 107.89573673 -0.2100691 111.14691925 -0.21308327 C111.95495674 -0.21382932 112.76299422 -0.21457537 113.59551769 -0.21534403 C126.67547277 -0.22798861 139.75529163 -0.26120036 152.83518308 -0.3028851 C166.27347603 -0.34535978 179.71169935 -0.36887935 193.15005922 -0.37409842 C200.69133681 -0.37750651 208.23240162 -0.38919016 215.77361298 -0.42220116 C222.19834963 -0.45027919 228.62282987 -0.46116727 235.0476231 -0.4500057 C238.32220204 -0.44483842 241.59613531 -0.45033677 244.87065887 -0.47247124 C248.43124653 -0.4952231 251.99049805 -0.48683799 255.55109406 -0.47098732 C256.57174942 -0.48486941 257.59240478 -0.49875149 258.64398909 -0.51305425 C268.56977071 -0.4047523 277.82204793 2.82605533 284.96942902 9.88823509 C285.44931558 10.35322316 285.92920214 10.81821123 286.42363071 11.29728985 C288.06329621 12.89466336 289.67723279 14.51589477 291.29340363 16.13701439 C292.57991053 17.39897977 293.86798757 18.65934589 295.15738678 19.91835594 C299.62312442 24.2922139 304.05165376 28.70281198 308.47699738 33.11748314 C309.27616137 33.91381975 310.07532536 34.71015636 310.89870644 35.53062439 C315.1152271 39.73227373 319.32895855 43.93669563 323.5402298 48.14360619 C327.8730451 52.47090628 332.21508869 56.78882331 336.55928707 61.10469151 C339.91955978 64.44631815 343.27308401 67.79465575 346.62481117 71.14485168 C348.22303437 72.7400602 349.82374407 74.33278173 351.42703819 75.92289352 C353.66628006 78.1450088 355.89578688 80.37647677 358.12323761 82.61040306 C358.77836334 83.25631401 359.43348907 83.90222496 360.1084671 84.56770897 C370.21821873 94.76943169 373.60926114 104.81485639 373.69463384 119.14377832 C373.68814978 120.57345041 373.6813799 122.00312123 373.67435455 123.43279076 C373.67781574 124.97284828 373.68258339 126.51290333 373.68853629 128.05295324 C373.70101266 132.26390876 373.6948913 136.47465923 373.68557763 140.6856153 C373.67877365 145.23510775 373.68927505 149.78456561 373.6975174 154.33405113 C373.71084254 163.23820676 373.70798242 172.14228643 373.69927947 181.04644501 C373.69249854 188.28439972 373.69158798 195.52233317 373.69485092 202.76029015 C373.69531062 203.79125776 373.69577032 204.82222537 373.69624395 205.88443443 C373.69720315 207.97896279 373.69817579 210.07349113 373.69916172 212.16801947 C373.70771205 231.79872971 373.69788709 251.42939788 373.68176062 271.06010121 C373.66835777 287.89646963 373.67068597 304.73277599 373.68451691 321.5691433 C373.70057903 341.13061943 373.70688811 360.69205871 373.69768012 380.25354052 C373.69672449 382.34027322 373.69578138 384.42700592 373.69485092 386.51373863 C373.6943881 387.54039476 373.69392527 388.5670509 373.69344842 389.62481782 C373.69086043 396.85231663 373.69522541 404.07979203 373.70228958 411.30728722 C373.71071179 420.11770949 373.70840926 428.9280516 373.69244735 437.73846471 C373.68457436 442.23185918 373.68145646 446.72512008 373.69139481 451.21851349 C373.70036235 455.33530526 373.69537507 459.4518402 373.67946215 463.56860882 C373.67612305 465.05434354 373.67778874 466.54010014 373.68508951 468.02582067 C373.74602649 481.46182015 371.91911123 492.14817785 362.40668488 502.11357689 C355.28297903 508.69145851 348.10821998 512.25471315 338.37868309 512.27123547 C337.16118083 512.27569331 335.94367857 512.28015115 334.6892823 512.28474408 C333.33628391 512.28465479 331.98328553 512.28446494 330.63028717 512.28418541 C329.19440554 512.28748508 327.75852483 512.29121087 326.32264531 512.29532689 C322.37183817 512.30534328 318.42104623 512.3090631 314.4702282 512.3117162 C310.21102885 512.31562031 305.95184152 512.32519857 301.69264984 512.33392906 C291.40423048 512.35369033 281.11581014 512.36375921 270.82737654 512.37265685 C265.98217021 512.37704026 261.13696496 512.38240693 256.29175949 512.38764572 C240.18489242 512.40465758 224.07802603 512.41915177 207.97115135 512.42639446 C203.79145939 512.42830435 199.61176744 512.43022468 195.4320755 512.4321804 C194.39323606 512.43266414 193.35439661 512.43314789 192.28407718 512.43364628 C175.45545147 512.44194664 158.62689683 512.46728386 141.79830216 512.49976108 C124.5202362 512.53283385 107.24220636 512.55084342 89.96410859 512.5540387 C80.26330096 512.55620358 70.56259699 512.56494908 60.86182022 512.59049988 C52.60021479 512.61220982 44.3387382 512.62025583 36.07710747 512.6105331 C31.8631856 512.60598927 27.64952954 512.60787936 23.43564415 512.62729454 C19.5739131 512.64493324 15.71264165 512.64392304 11.85090567 512.62839725 C10.45784959 512.62602223 9.06476162 512.6303393 7.67175423 512.6422259 C-5.45266326 512.74723236 -14.88774185 509.66628171 -24.39409637 500.51201439 C-33.43360501 490.74934506 -33.95635959 479.57478157 -34.05669403 466.93535423 C-34.07329726 465.40297365 -34.10064504 463.87067187 -34.13872528 462.33867455 C-34.19359449 460.11480155 -34.21537201 457.89272357 -34.23003387 455.66826439 C-34.25270325 454.98792137 -34.27537262 454.30757835 -34.29872894 453.60661888 C-34.28179575 449.7793591 -33.78250945 448.23190968 -31.36138153 445.20537376 C-28.70659637 443.13701439 -28.70659637 443.13701439 -25.70659637 442.51201439 C-21.64384726 443.35842045 -20.30160889 444.93675979 -17.70659637 448.13701439 C-17.11064911 451.4075222 -17.11064911 451.4075222 -17.14019012 455.09013939 C-17.13455551 455.74979698 -17.1289209 456.40945457 -17.12311554 457.08910179 C-17.10673275 459.18913695 -17.12211612 461.28705489 -17.14409637 463.38701439 C-17.61198379 477.54102975 -17.61198379 477.54102975 -11.25908661 489.70805931 C-4.57390656 495.59215315 1.85634857 496.26361078 10.54471588 496.25726891 C11.60596221 496.25855054 11.60596221 496.25855054 12.68864787 496.25985807 C15.04699759 496.26149835 17.40527536 496.25601539 19.76361847 496.25053978 C21.4590632 496.25025757 23.15450804 496.25041631 24.8499527 496.25098228 C29.44450293 496.25126893 34.03902699 496.24539356 38.63357115 496.23840833 C43.43820023 496.23215279 48.24282993 496.23156925 53.04746246 496.23038292 C62.14208883 496.2272761 71.23670315 496.21907144 80.33132422 496.20903343 C90.68676651 496.19785216 101.04220938 496.19235676 111.3976562 496.18733799 C132.69624539 496.1768883 153.99482375 496.1593014 175.29340363 496.13701439 C174.51079666 495.36328987 173.7281897 494.58956535 172.92186737 493.79239464 C165.53950414 486.49119979 158.1677877 479.1794038 150.80630016 471.85715961 C147.02155238 468.09326563 143.2331831 464.3331746 139.43622589 460.58159447 C135.7704998 456.95940345 132.11469798 453.32746246 128.46550179 449.68862152 C127.07317935 448.30367658 125.67734707 446.92225076 124.27793694 445.54446793 C122.31487801 443.61054333 120.36479556 441.66435793 118.41718292 439.71489525 C117.83887222 439.15096565 117.26056152 438.58703606 116.66472626 438.00601768 C113.01003773 434.31371162 110.97536958 431.07374747 109.29340363 426.13701439 C109.42230988 423.46904564 109.42230988 423.46904564 109.85590363 420.94951439 C110.04447563 416.83521604 109.28466022 414.78824335 106.63324738 411.76201439 C103.67167076 408.70968193 100.52842231 405.8954455 97.29340363 403.13701439 C93.33488016 404.54518479 89.84073314 406.4759332 86.21601105 408.56426048 C77.47018711 413.59931245 68.81320803 417.77271339 59.29340363 421.13701439 C58.22992706 421.5147097 57.1664505 421.89240501 56.07074738 422.28154564 C19.1773681 434.48790533 -21.696241 430.11552305 -56.27422333 413.04448509 C-90.49661463 395.36771151 -116.27360164 364.19432598 -128.31255341 327.7500515 C-140.2504447 289.1281308 -135.92184861 248.48023191 -117.58159637 212.69951439 C-100.02447802 179.62689067 -69.11979205 154.71967286 -33.70659637 143.13701439 C-18.98222215 138.65495379 -4.34372256 136.73948003 11.04340363 136.82451439 C11.747836 136.82666954 12.45226837 136.82882469 13.17804718 136.83104515 C23.83109448 136.88328077 33.95033285 137.38271903 44.29340363 140.13701439 C45.42648956 140.41907738 45.42648956 140.41907738 46.58246613 140.70683861 C69.4082359 146.47291429 89.28715267 157.05563669 107.29340363 172.13701439 C108.00367706 172.72353783 108.7139505 173.31006126 109.44574738 173.91435814 C114.21733526 177.95326459 118.31007561 182.32712383 122.29340363 187.13701439 C122.90828644 187.85244408 123.52316925 188.56787376 124.15668488 189.30498314 C149.62241395 219.77199768 160.19058118 258.55111462 157.07807159 297.85625267 C154.62923425 322.57231687 145.64921165 346.83923284 131.29340363 367.13701439 C132.71261767 368.83805818 134.14611469 370.52075306 135.60980988 372.18388939 C137.29340363 374.13701439 137.29340363 374.13701439 138.57074738 375.90263939 C140.96993362 378.90709146 142.46440833 380.01420027 146.35199738 380.59013939 C148.59063877 380.70194441 150.8332792 380.75458671 153.07465363 380.73857689 C160.06387898 381.60374799 164.8476812 387.394169 169.61225128 392.1653347 C170.31871292 392.86507912 171.02517456 393.56482353 171.75304413 394.28577232 C174.07649162 396.59029089 176.39238822 398.90221498 178.70746613 401.21513939 C180.3258398 402.82708247 181.94436217 404.43887629 183.56302643 406.05052757 C186.95068108 409.42622284 190.33419188 412.80601092 193.71527863 416.18828392 C198.04045995 420.51366855 202.3792394 424.82512698 206.72169685 429.13315773 C210.06748302 432.45666967 213.40410196 435.78926987 216.73823929 439.12446404 C218.33375591 440.71762623 219.93250365 442.30755953 221.5345726 443.89413261 C223.77715072 446.11703826 226.00661035 448.35235461 228.23334503 450.59111595 C228.89214157 451.23867348 229.55093811 451.886231 230.22969818 452.55341148 C237.40323395 459.82542946 241.19194896 468.27113584 241.60590363 478.51201439 C241.45614036 485.15919946 239.28456436 491.264991 236.29340363 497.13701439 C249.1937182 497.05254529 262.09391001 496.95763615 274.99404907 496.8494873 C280.98443547 496.79959281 286.97480482 496.75326207 292.96527863 496.71513939 C298.74900391 496.67820025 304.53258414 496.6318167 310.316185 496.57895088 C312.52008768 496.56045279 314.7240214 496.54532801 316.92797089 496.53367043 C320.02063524 496.51672954 323.11297071 496.48767537 326.205513 496.45586205 C327.11182465 496.45370186 328.01813629 496.45154167 328.95191193 496.44931602 C337.01643106 496.34370038 343.78395273 495.31498669 350.29340363 490.13701439 C355.24471171 484.91063363 356.54068102 479.72381332 356.55511665 472.63591766 C356.56258215 471.33859841 356.57004764 470.04127915 356.57773936 468.70464718 C356.57596272 467.27203799 356.57400185 465.83942902 356.57187653 464.4068203 C356.57688063 462.87958762 356.58275677 461.3523576 356.58942926 459.8251313 C356.60522935 455.63149307 356.60865995 451.43792185 356.61007786 447.24425745 C356.61377188 442.72078385 356.62892738 438.19734701 356.64269257 433.67389488 C356.66496913 425.83771334 356.67998004 418.00154487 356.69005966 410.16533852 C356.70464361 398.83549627 356.73017965 387.50569954 356.75839095 376.17588399 C356.80386409 357.79412441 356.84047675 339.41235827 356.87152863 321.03056908 C356.90171202 303.17411206 356.93606133 285.31767107 356.97602081 267.46123314 C356.97848236 266.36060811 356.98094391 265.25998308 356.98348005 264.12600578 C356.99585461 258.60450714 357.00831115 253.08300869 357.02080846 247.56151032 C357.12438408 201.75336736 357.21358477 155.94520449 357.29340363 110.13701439 C355.93609634 110.15033806 355.93609634 110.15033806 354.55136871 110.16393089 C345.98974027 110.24435076 337.42824018 110.30511742 328.86631966 110.34426308 C324.46538446 110.36506545 320.0647635 110.39324716 315.66400909 110.4387722 C311.41052319 110.48249432 307.15733799 110.50620667 302.90364456 110.51652336 C301.28744911 110.52386775 299.67126859 110.53820877 298.05520248 110.55993462 C287.98426606 110.68983993 279.00496006 110.51218579 270.67230988 104.12920189 C269.77318878 103.08119408 269.77318878 103.08119408 268.85590363 102.01201439 C268.23844269 101.32881126 267.62098175 100.64560814 266.98480988 99.94170189 C261.49131525 90.83239671 261.8923499 80.89980229 262.00043488 70.62920189 C262.00604129 69.05166086 262.01030644 67.47411455 262.01329803 65.89656639 C262.02466465 61.77671543 262.05405959 57.65718987 262.08740997 53.53746605 C262.11828901 49.32069358 262.1318412 45.10386772 262.14691925 40.88701439 C262.17893862 32.6368663 262.23003372 24.38698101 262.29340363 16.13701439 C229.43451395 16.09122641 196.57563256 16.05598982 163.71671826 16.03488373 C159.83651828 16.03238235 155.95631836 16.0297937 152.07611847 16.02715111 C151.30364773 16.02662649 150.53117698 16.02610187 149.73529804 16.02556135 C137.23119736 16.01686118 124.72711509 16.00109333 112.22302532 15.9827088 C99.39056702 15.96399897 86.55811835 15.95289537 73.72564697 15.9488374 C65.80874736 15.94609459 57.89189977 15.93743477 49.97501618 15.92118146 C43.90207982 15.90934962 37.82918814 15.90810579 31.75623894 15.91079903 C29.26658241 15.91024868 26.77692392 15.90626874 24.28727913 15.89860344 C20.88747413 15.88864906 17.48789154 15.89104749 14.08808136 15.89650536 C13.10362848 15.89067967 12.11917561 15.88485399 11.10489082 15.87885177 C2.83661809 15.91471286 -4.01994224 16.81808496 -10.70659637 22.13701439 C-16.17293053 27.90703378 -17.00424101 33.73112428 -16.94609833 41.44975853 C-16.94811249 42.26190315 -16.95012665 43.07404778 -16.95220184 43.91080284 C-16.95573407 45.66554042 -16.95499671 47.42029076 -16.9504261 49.17502594 C-16.94481407 51.95363665 -16.95402125 54.7318329 -16.96762848 57.51041222 C-17.00468633 65.40720618 -17.02327572 73.30385651 -17.0120163 81.20073509 C-17.00616533 86.03838251 -17.02442 90.875443 -17.0579052 95.71297073 C-17.0658564 97.55372986 -17.06458599 99.39455299 -17.05388069 101.23529816 C-17.03955252 103.80873719 -17.05582196 106.38032783 -17.07891083 108.95366478 C-17.06125923 110.09075386 -17.06125923 110.09075386 -17.04325104 111.25081444 C-17.11281601 115.20677853 -17.57334687 116.9685978 -20.05832672 120.10941124 C-22.70659637 122.13701439 -22.70659637 122.13701439 -25.70659637 122.76201439 C-29.81178365 121.90676704 -31.12081773 120.41456837 -33.70659637 117.13701439 C-34.19144372 114.17322906 -34.3727243 111.79001069 -34.32183075 108.83354759 C-34.32737976 108.01007332 -34.33292877 107.18659904 -34.33864594 106.33817101 C-34.35043771 103.62078351 -34.32616242 100.90506618 -34.30034637 98.18779564 C-34.29863425 96.29075763 -34.29870199 94.39371726 -34.30046844 92.49667931 C-34.29881516 88.51954583 -34.28012377 84.54297594 -34.24858856 80.56596947 C-34.20904639 75.48987041 -34.20452774 70.41451393 -34.21205139 65.33829021 C-34.21513568 61.41837431 -34.20294669 57.49862253 -34.18592072 53.5787468 C-34.17892913 51.70862103 -34.17576148 49.83847665 -34.17661285 47.96833801 C-34.16651718 33.3664996 -33.41094042 21.25585101 -22.81987762 10.16045189 C-16.22597647 4.07178088 -9.10131689 0.02592359 0 0 Z M278.29340363 27.13701439 C278.22374506 34.59558789 278.17051223 42.05409069 278.13796711 49.51292419 C278.12234321 52.97676817 278.10116567 56.44038878 278.06708527 59.90410423 C278.02810903 63.89056748 278.01366726 67.87694179 278.00043488 71.86357689 C277.98495102 73.10128838 277.96946716 74.33899986 277.9535141 75.61421776 C277.83421486 83.84482443 277.83421486 83.84482443 281.29340363 91.13701439 C284.56549102 94.20261321 286.82833166 94.50549173 291.25531769 94.47759056 C293.05673218 94.47725067 293.05673218 94.47725067 294.89453888 94.47690392 C296.1863205 94.46142006 297.47810211 94.4459362 298.80902863 94.42998314 C300.14852167 94.42438491 301.48802088 94.42011588 302.82752228 94.41711998 C306.34578283 94.40568892 309.86366933 94.37623733 313.38178253 94.34300804 C316.97466726 94.31226928 320.56761268 94.29860655 324.16059113 94.28349876 C331.20501459 94.25136552 338.24918463 94.2001906 345.29340363 94.13701439 C341.41739627 89.50312305 337.39933538 85.09744878 333.12030792 80.83452415 C332.53582382 80.24828773 331.95133972 79.66205132 331.34914398 79.05805016 C329.4411226 77.1456722 327.52952072 75.236922 325.61762238 73.32842064 C324.2832325 71.99335649 322.94899104 70.65814397 321.61489105 69.32279015 C318.83185948 66.53829049 316.0470424 63.75559246 313.26093292 60.97417259 C309.68173759 57.40070741 306.10709501 53.82272672 302.53374767 50.24341488 C299.78617567 47.49224157 297.03624163 44.74343924 294.28557014 41.99536514 C292.96546494 40.67592868 291.64610674 39.3557444 290.32749748 38.03481293 C288.49390775 36.19870017 286.6571722 34.36579521 284.81952667 32.5337429 C284.27150391 31.98369591 283.72348114 31.43364891 283.15885162 30.86693382 C281.07639469 28.29402367 281.07639469 28.29402367 278.29340363 27.13701439 Z M-23.70659637 157.13701439 C-24.43733368 157.34600365 -25.16807098 157.5549929 -25.92095184 157.77031517 C-45.41404253 163.57778584 -64.87733038 174.0344656 -78.70659637 189.13701439 C-81.12595608 191.56821436 -83.55584532 193.98806411 -85.99565887 196.39873314 C-109.7138594 221.02917214 -119.3071622 254.93485614 -118.92144012 288.42607689 C-118.70377213 296.50818426 -117.51979629 304.268411 -115.70659637 312.13701439 C-115.54562469 312.83600853 -115.38465302 313.53500267 -115.21880341 314.25517845 C-107.45611848 346.45428845 -86.58970057 375.1387921 -58.61675262 392.78935814 C-38.85280802 404.84343688 -16.91346611 412.0776423 6.29340363 413.13701439 C7.06297394 413.17826439 7.83254425 413.21951439 8.62543488 413.26201439 C40.65576045 414.13507267 72.37177707 402.16460037 96.29340363 381.13701439 C97.14547394 380.41771751 97.99754425 379.69842064 98.87543488 378.95732689 C122.48289611 358.57730659 137.77195528 327.98904204 141.04730988 297.05888939 C143.27927621 261.4891402 134.75928872 227.6006399 111.69965363 199.82842064 C89.24580213 174.71364194 59.74034618 155.7605635 25.29340363 153.13701439 C8.61673839 152.2313575 -7.58411985 152.52200411 -23.70659637 157.13701439 Z M119.29340363 380.13701439 C118.18742263 381.38540938 117.08370162 382.63580673 115.98090363 383.88701439 C115.05857941 384.93115501 115.05857941 384.93115501 114.11762238 385.99638939 C112.4292779 387.97757305 110.8552021 390.05461642 109.29340363 392.13701439 C112.59340363 395.43701439 115.89340363 398.73701439 119.29340363 402.13701439 C122.96112208 400.30315516 124.76175359 398.8863861 127.54340363 396.01201439 C128.603013 394.9253347 128.603013 394.9253347 129.68402863 393.81670189 C130.21512238 393.26240501 130.74621613 392.70810814 131.29340363 392.13701439 C127.61508346 387.61085446 123.88254 383.7427644 119.29340363 380.13701439 Z M142.93402863 402.02763939 C142.42539276 402.52866173 141.9167569 403.02968407 141.39270782 403.5458889 C140.31977117 404.60801822 139.25078963 405.67415555 138.18549347 406.74394798 C136.54946611 408.3809483 134.89330725 409.99547863 133.23480988 411.60967064 C132.19575084 412.64352337 131.15794642 413.67863889 130.12152863 414.71513939 C129.37325806 415.43881706 129.37325806 415.43881706 128.60987091 416.17711449 C127.06462705 417.69619508 127.06462705 417.69619508 125.29340363 420.13701439 C125.63296763 423.32802027 126.76337259 424.98289215 128.99279022 427.21735191 C129.56607056 427.79909172 130.13935089 428.38083153 130.73000336 428.98019981 C131.36218277 429.60630653 131.99436218 430.23241325 132.64569855 430.8774929 C133.30920319 431.5462545 133.97270782 432.2150161 134.65631866 432.9040432 C136.85467466 435.11561643 139.06384111 437.31601891 141.27387238 439.51592064 C142.80550601 441.04957498 144.33669406 442.58367444 145.86745453 444.1182003 C149.07985415 447.33502604 152.29762513 450.54635547 155.5192337 453.75395775 C159.64418393 457.8618451 163.75555948 461.98301312 167.86297894 466.10842037 C171.02401276 469.28030869 174.19217476 472.44499947 177.36252022 475.60757828 C178.88094283 477.12400201 180.39714659 478.64265092 181.91106987 480.16356659 C184.03157352 482.29170849 186.1614924 484.40996351 188.29413605 486.5259304 C188.91619431 487.15406136 189.53825256 487.78219231 190.17916107 488.42935753 C195.1084199 493.28762489 200.14617917 496.85673108 207.29340363 497.13701439 C213.86839129 495.72642306 218.72006178 493.26178663 223.04340363 488.01201439 C225.03341467 483.43498898 226.44703469 478.21315999 224.63151646 473.37209892 C222.03569196 467.91648098 218.74437792 464.02111353 214.46112823 459.80303001 C213.78261307 459.11911186 213.1040979 458.43519371 212.40502167 457.73055077 C210.1783602 455.49146549 207.93762356 453.2671077 205.69574738 451.04326439 C204.1385763 449.48593826 202.5820726 447.92794455 201.02620697 446.36931419 C197.77351457 443.11524091 194.51398738 439.8682237 191.24921417 436.6262722 C187.05837645 432.46392413 182.88340357 428.28607572 178.71314907 424.10311699 C175.50610324 420.88913171 172.29175513 417.68253358 169.07502174 414.47824669 C167.53192576 412.93967458 165.99092753 411.39899565 164.45204735 409.85620689 C162.30737907 407.70864084 160.1533069 405.57098993 157.99628448 403.43584251 C157.3588028 402.79385918 156.72132111 402.15187584 156.06452179 401.49043846 C150.28702414 395.81037086 148.26035233 396.70350174 142.93402863 402.02763939 Z " fill="#000000" transform="translate(136.70659637451172,-0.13701438903808594)"/>
<path d="M0 0 C0.69722168 0.21430664 1.39444336 0.42861328 2.11279297 0.64941406 C31.85870842 10.14323237 55.79717931 31.64850976 70.23217773 59.11914062 C84.16093342 87.05528495 85.84659647 119.48168155 76.375 149.0625 C66.53104656 177.88607205 46.17279919 201.43909286 19.0625 215.25 C-9.78987258 229.37012417 -42.12796238 232.00375312 -72.66894531 221.84082031 C-85.61452589 217.17130005 -97.32166278 210.65436078 -108 202 C-109.44439453 200.83017578 -109.44439453 200.83017578 -110.91796875 199.63671875 C-131.0814634 182.26027978 -143.76245277 158.24759706 -148.8828125 132.35546875 C-149.01828116 128.47654941 -148.4006754 126.99815291 -146 124 C-143 122 -143 122 -139.5 122.1875 C-135.94631935 123.01246158 -135.17352632 123.29736589 -133 126 C-132.10409017 128.81778092 -131.33201315 131.57365668 -130.625 134.4375 C-126.66800956 149.44419961 -120.33569683 162.55240423 -111 175 C-110.319375 174.29875 -109.63875 173.5975 -108.9375 172.875 C-107.96058726 171.91436914 -106.98124098 170.95620932 -106 170 C-105.5153125 169.50757813 -105.030625 169.01515625 -104.53125 168.5078125 C-94.55667211 159.0710795 -77.91984277 155.29303693 -64.4296875 154.89453125 C-63.62789063 154.92933594 -62.82609375 154.96414063 -62 155 C-61.84820045 148.70037192 -61.84820045 148.70037192 -64.4140625 143.1640625 C-65.62649629 142.06913331 -66.85114224 140.98761649 -68.0859375 139.91796875 C-72.98014149 135.01377659 -77.81329862 126.20078116 -78.125 119.1875 C-78.08375 118.465625 -78.0425 117.74375 -78 117 C-78.763125 116.773125 -79.52625 116.54625 -80.3125 116.3125 C-83.63258545 114.69106292 -84.4570022 113.31744527 -86 110 C-87.15482716 105.61861059 -87.16130998 101.27016542 -87.16796875 96.76953125 C-87.17296135 95.58383797 -87.17296135 95.58383797 -87.17805481 94.37419128 C-87.1831047 92.70413797 -87.18546374 91.03407462 -87.18530273 89.36401367 C-87.18747786 86.83820454 -87.20562262 84.3128407 -87.22460938 81.78710938 C-87.27104782 68.82220013 -87.07942318 55.97294261 -77.98828125 45.734375 C-71.0786053 39.2226385 -63.05094825 34.92228084 -53.43432617 34.83886719 C-52.53626755 34.82925964 -51.63820892 34.8196521 -50.7129364 34.80975342 C-49.74934708 34.80550354 -48.78575775 34.80125366 -47.79296875 34.796875 C-46.79421219 34.79117493 -45.79545563 34.78547485 -44.76643372 34.77960205 C-42.65411434 34.77016271 -40.54178031 34.76362231 -38.42944336 34.75976562 C-35.20986021 34.75006736 -31.99091758 34.7190365 -28.77148438 34.6875 C-26.71614961 34.68096874 -24.6608103 34.67571875 -22.60546875 34.671875 C-21.64795212 34.6595282 -20.69043549 34.6471814 -19.7039032 34.63446045 C-13.23465266 34.65585388 -8.16039983 35.34324955 -3.0390625 39.6484375 C-0.29021684 43.00476287 1.7267817 45.49189806 2 50 C2.70125 50.0825 3.4025 50.165 4.125 50.25 C9.10598706 51.54938793 12.18960231 53.94867326 15.3125 58 C17.49022339 61.87150825 18.12032486 64.90196312 18.16113281 69.30615234 C18.17074036 70.1473764 18.1803479 70.98860046 18.19024658 71.85531616 C18.1966214 73.20697372 18.1966214 73.20697372 18.203125 74.5859375 C18.20882507 75.5204776 18.21452515 76.4550177 18.22039795 77.4178772 C18.22983396 79.39315666 18.23637637 81.36845177 18.24023438 83.34375 C18.24994218 86.35705136 18.28097972 89.36967105 18.3125 92.3828125 C18.31903037 94.30468346 18.32428071 96.22655929 18.328125 98.1484375 C18.3404718 99.04549408 18.3528186 99.94255066 18.36553955 100.86679077 C18.34739334 105.99139129 17.89783437 109.58231637 15 114 C14.175 114.5775 13.35 115.155 12.5 115.75 C9.75231522 118.22291631 9.47250253 119.16806733 8.5625 122.625 C6.20400666 131.53486372 1.65950966 138.03328241 -5.4609375 143.8203125 C-7.82865479 147.17357709 -7.24362304 149.9592178 -7 154 C-6.09459473 154.15033691 -6.09459473 154.15033691 -5.17089844 154.30371094 C24.37975856 159.27200668 24.37975856 159.27200668 33 166 C33.886875 166.639375 34.77375 167.27875 35.6875 167.9375 C38.10521157 170.09383735 39.38089767 172.22439601 41 175 C41.66 175 42.32 175 43 175 C59.82454554 153.59253438 67.72903237 126.56598042 64.71582031 99.44189453 C60.79897555 72.21824827 47.58554611 49.11000207 25.9453125 32.09375 C2.73221766 15.59213351 -23.88235835 9.46510449 -52.1015625 13.66015625 C-76.73674139 18.16621112 -100.56411678 32.85329507 -114.95458984 53.39086914 C-123.07606602 65.43838874 -128.21905539 78.09221725 -131.8046875 92.15625 C-132.05476563 93.1359375 -132.30484375 94.115625 -132.5625 95.125 C-132.77003906 95.99382812 -132.97757813 96.86265625 -133.19140625 97.7578125 C-134.09005 100.24970388 -134.89539743 101.40760191 -137 103 C-141.24437522 103.62879633 -143.308527 103.41776494 -147 101.1875 C-150.07536894 96.28613075 -149.0820402 92.51840503 -148 87 C-147.79375 85.906875 -147.5875 84.81375 -147.375 83.6875 C-142.61188999 62.80309457 -131.52350011 45.40143189 -117 30 C-116.32582031 29.24976563 -115.65164062 28.49953125 -114.95703125 27.7265625 C-101.5109599 13.34708657 -82.66951983 4.34253555 -64 -1 C-62.93523437 -1.32097656 -61.87046875 -1.64195312 -60.7734375 -1.97265625 C-41.55147533 -6.81190902 -18.90426345 -5.83788535 0 0 Z M-66.875 57.75 C-70.67483874 63.56151808 -71.09373508 68.50766981 -71.04296875 75.2734375 C-71.03676514 76.34770996 -71.03056152 77.42198242 -71.02416992 78.52880859 C-71.01619385 79.34430176 -71.00821777 80.15979492 -71 81 C-67.01652774 81.07480519 -63.03333406 81.12890718 -59.04931641 81.16479492 C-57.03663752 81.18709408 -55.02415416 81.22523653 -53.01171875 81.26367188 C-45.88186453 81.31741449 -40.44926526 81.08951212 -34 78 C-32.93394531 77.55398437 -31.86789063 77.10796875 -30.76953125 76.6484375 C-28.78969413 75.79582601 -26.81053198 74.94164555 -24.83203125 74.0859375 C-18.92309105 71.82016457 -13.43852892 71.87690091 -7.1875 71.9375 C-6.30384766 71.94201172 -5.42019531 71.94652344 -4.50976562 71.95117188 C-2.33981441 71.96290134 -0.16989828 71.98083505 2 72 C1.505 69.03 1.505 69.03 1 66 C-0.13888672 65.84917969 -0.13888672 65.84917969 -1.30078125 65.6953125 C-4.4836143 65.09259703 -7.09810418 64.45524065 -10 63 C-11.46438003 60.40287895 -12.01533707 58.20293764 -12.53515625 55.27734375 C-12.8203561 52.81204058 -12.8203561 52.81204058 -15 51 C-17.99195044 50.77502711 -20.88836557 50.67179937 -23.8828125 50.6640625 C-24.77104706 50.6574057 -25.65928162 50.6507489 -26.57443237 50.64389038 C-28.45910571 50.63375007 -30.34381504 50.62907379 -32.22851562 50.62939453 C-35.09306472 50.62504845 -37.95603902 50.58882007 -40.8203125 50.55078125 C-42.65364059 50.5449077 -44.48697597 50.54094191 -46.3203125 50.5390625 C-47.16957306 50.52469147 -48.01883362 50.51032043 -48.89382935 50.49551392 C-56.30427426 50.55154597 -61.50609791 52.61452844 -66.875 57.75 Z M-25 91 C-26.76592827 91.74096698 -28.5367569 92.47037298 -30.3125 93.1875 C-31.48232422 93.67283203 -31.48232422 93.67283203 -32.67578125 94.16796875 C-37.50756591 95.89766645 -42.16014655 96.16922233 -47.26953125 96.31640625 C-47.95053391 96.33718735 -48.63153656 96.35796844 -49.33317566 96.37937927 C-51.49285508 96.44437878 -53.65264846 96.50352712 -55.8125 96.5625 C-57.28321456 96.6057325 -58.75391791 96.64934825 -60.22460938 96.69335938 C-63.81628717 96.80000859 -67.40809082 96.90141349 -71 97 C-71 98.98 -71 100.96 -71 103 C-70.21625 103.2475 -69.4325 103.495 -68.625 103.75 C-65.51706142 105.22997075 -65.24887514 105.88848629 -64 109 C-63.55176078 110.88861768 -63.1378463 112.78556141 -62.75 114.6875 C-60.57975251 123.55204322 -56.46371834 129.44215596 -49.125 134.80859375 C-42.11765201 138.73734584 -34.8299297 138.81237681 -27 138 C-19.09561639 135.76944791 -13.63028242 130.63859768 -9 124 C-6.48519148 119.28586073 -5.51396726 114.21241151 -4.625 108.98046875 C-3.86787503 106.58132901 -2.95287413 105.56323818 -1 104 C-0.01 103.67 0.98 103.34 2 103 C2 98.05 2 93.1 2 88 C-8.35389111 86.27435148 -15.47700027 86.58288535 -25 91 Z M-46 153 C-46.33 155.97 -46.66 158.94 -47 162 C-41.23217475 165.23560929 -36.27085961 166.69231376 -29.75 165.1875 C-25.97259505 164.18224062 -25.97259505 164.18224062 -23 162 C-23.33 159.03 -23.66 156.06 -24 153 C-31.26 153 -38.52 153 -46 153 Z M-76.4375 173.25 C-77.8306543 173.55744141 -77.8306543 173.55744141 -79.25195312 173.87109375 C-87.03821723 175.69989599 -92.37154485 178.14302941 -97 185 C-97.37154883 186.32319324 -97.71241873 187.65605584 -98 189 C-73.85005511 206.6912387 -48.04363965 215.15693034 -18.01953125 210.74609375 C-0.73252848 207.72139854 15.08859385 200.70108165 29 190 C27.99522601 184.52854892 26.80768156 181.32563315 22.1875 177.9375 C13.17300656 173.26894129 1.1674363 169.93118594 -9 171 C-11.38489665 172.23752369 -13.12622813 173.63839816 -15.1171875 175.43359375 C-21.29957267 180.57703038 -30.92266042 181.34346709 -38.65625 180.8203125 C-46.52612949 179.71219728 -55.28589489 176.71410511 -61 171 C-66.31718747 170.5770864 -71.30155833 172.03611468 -76.4375 173.25 Z " fill="#000000" transform="translate(182,171)"/>
<path d="M0 0 C1.52513292 -0.00542695 3.05026059 -0.01255282 4.57537842 -0.02124023 C8.6994091 -0.03940862 12.82303757 -0.03243311 16.94707489 -0.01972389 C21.27283269 -0.00956245 25.59855718 -0.01899828 29.92431641 -0.02526855 C37.18723705 -0.03253583 44.44999474 -0.02298147 51.71289062 -0.00390625 C60.09726077 0.01786078 68.48124177 0.01080875 76.86560249 -0.01121187 C84.0777525 -0.02939215 91.28978569 -0.03191138 98.50195122 -0.0214572 C102.80355071 -0.01523667 107.10496758 -0.01434677 111.40655518 -0.02760315 C115.45165376 -0.03919942 119.496253 -0.03106761 123.54129791 -0.00802612 C125.02148868 -0.00275909 126.50172182 -0.00421833 127.98189545 -0.01307678 C135.98476211 -0.05653838 142.14370376 -0.02780978 148.8984375 4.51757812 C153.40221714 10.17617306 154.06303329 14.66702819 154.1015625 21.69335938 C154.10726257 22.49613815 154.11296265 23.29891693 154.11883545 24.12602234 C154.12827789 25.82480556 154.13481643 27.52360703 154.13867188 29.22241211 C154.14836254 31.81006188 154.17938608 34.39691209 154.2109375 36.984375 C154.21746951 38.63736509 154.22271921 40.29036085 154.2265625 41.94335938 C154.2389093 42.71231033 154.2512561 43.48126129 154.26397705 44.27351379 C154.24145441 49.75675557 153.22421556 53.96770165 149.3984375 58.16210938 C144.5913472 61.9051302 141.58471098 62.64254895 135.57975769 62.65802002 C134.93622654 62.66099114 134.29269539 62.66396226 133.62966329 62.66702342 C131.46948571 62.67570721 129.30936358 62.67721839 127.14916992 62.67871094 C125.60183087 62.68333934 124.05449295 62.68836403 122.50715637 62.6937561 C118.30045418 62.70688005 114.09376795 62.71332506 109.88704848 62.71776676 C107.25892341 62.72069753 104.6308027 62.72480235 102.00267982 62.72927094 C93.78006389 62.74294593 85.55745793 62.75261254 77.33483142 62.75647283 C67.84270371 62.76095356 58.35072 62.77850215 48.85863608 62.80747342 C41.52180918 62.82908927 34.18502279 62.83917706 26.84816438 62.84051394 C22.46607925 62.84156205 18.08412948 62.84747108 13.70207787 62.86533356 C9.57919043 62.88181257 5.45654014 62.88397063 1.33363152 62.87519455 C-0.17804855 62.87442408 -1.68974136 62.87876827 -3.20138931 62.8886528 C-5.26851845 62.90137489 -7.334808 62.89549502 -9.40193176 62.8850708 C-10.55765088 62.88653736 -11.71337 62.88800392 -12.90411091 62.88951492 C-17.18477354 62.39157589 -20.55007073 60.93271551 -23.74609375 58.01757812 C-29.35975058 50.80806568 -28.39194063 43.22651812 -28.45166016 34.49536133 C-28.46817933 32.7273234 -28.49541603 30.95935115 -28.53369141 29.19165039 C-28.58882511 26.62937123 -28.61039059 24.06865406 -28.625 21.50585938 C-28.64766937 20.72535721 -28.67033875 19.94485504 -28.69369507 19.14070129 C-28.67452721 14.09322082 -27.53451988 10.66503496 -24.9581604 6.34220886 C-17.80006225 -0.69264015 -9.42227481 -0.05638988 0 0 Z M-12.1015625 16.51757812 C-12.1015625 26.41757813 -12.1015625 36.31757812 -12.1015625 46.51757812 C37.3984375 46.51757812 86.8984375 46.51757812 137.8984375 46.51757812 C137.8984375 36.61757812 137.8984375 26.71757813 137.8984375 16.51757812 C88.3984375 16.51757812 38.8984375 16.51757812 -12.1015625 16.51757812 Z " fill="#000000" transform="translate(178.1015625,47.482421875)"/>
<path d="M0 0 C1.12439484 -0.0071553 2.24878967 -0.01431061 3.40725708 -0.02168274 C4.64161499 -0.02437164 5.8759729 -0.02706055 7.1477356 -0.02983093 C9.0968132 -0.03968773 9.0968132 -0.03968773 11.08526611 -0.04974365 C15.39530201 -0.07076436 19.7053382 -0.08114256 24.01541138 -0.09111023 C25.49962508 -0.0951582 26.98383859 -0.09927514 28.46805191 -0.10346031 C35.43965051 -0.12250577 42.41123855 -0.13673947 49.38285816 -0.14507228 C57.43009414 -0.15484977 65.47705543 -0.18118506 73.5241946 -0.22157317 C79.74509092 -0.25172433 85.96590844 -0.2665401 92.18687642 -0.26985329 C95.90221354 -0.2722045 99.61725698 -0.2811739 103.33251572 -0.30631447 C107.47682784 -0.33390634 111.62052501 -0.32976718 115.7649231 -0.32279968 C116.99523254 -0.33560974 118.22554199 -0.3484198 119.49313354 -0.36161804 C120.62316803 -0.35467422 121.75320251 -0.34773041 122.91748047 -0.34057617 C123.89713713 -0.34296453 124.87679379 -0.34535288 125.88613701 -0.34781361 C129.36112865 0.2893459 131.06133027 1.7273623 133.58572388 4.14717102 C134.21463013 6.14717102 134.21463013 6.14717102 134.14822388 8.14717102 C134.14951294 8.80717102 134.150802 9.46717102 134.15213013 10.14717102 C133.3298489 13.05067438 131.90051696 14.24268133 129.58572388 16.14717102 C126.96512604 16.6533289 126.96512604 16.6533289 123.93057251 16.66183472 C122.20188683 16.6809214 122.20188683 16.6809214 120.4382782 16.70039368 C119.1778923 16.6938678 117.91750641 16.68734192 116.618927 16.68061829 C115.2750809 16.68767733 113.93124275 16.6964223 112.5874176 16.70672607 C108.94067773 16.7292307 105.29437161 16.7262783 101.64758873 16.7174046 C98.60320795 16.71229552 95.55890875 16.7195865 92.51453638 16.72687668 C85.33327768 16.74387868 78.15223147 16.74030647 70.97097778 16.72358704 C63.56127855 16.7066589 56.15216814 16.72250854 48.74253321 16.75480992 C42.3806149 16.78149363 36.01888003 16.78878537 29.65691137 16.78029484 C25.85721613 16.77536273 22.05787533 16.77759619 18.25822449 16.79808235 C14.68584463 16.81642124 11.11431294 16.81050436 7.54197884 16.78588295 C5.60570103 16.77847792 3.66937822 16.79574385 1.73316956 16.81370544 C0.58071243 16.80105148 -0.57174469 16.78839752 -1.75912476 16.77536011 C-2.76052742 16.7747738 -3.76193008 16.77418749 -4.79367828 16.77358341 C-8.4160397 15.90771531 -9.46398737 14.23723457 -11.41427612 11.14717102 C-11.91096839 7.67032512 -11.83949367 5.89636384 -10.10177612 2.83467102 C-7.09983215 -0.16727295 -4.02459804 0.01756972 0 0 Z " fill="#000000" transform="translate(327.4142761230469,193.8528289794922)"/>
<path d="M0 0 C1.00140266 -0.00058631 2.00280533 -0.00117262 3.03455353 -0.0017767 C4.18701065 -0.01443066 5.33946777 -0.02708462 6.52684784 -0.04012203 C7.78723373 -0.02842983 9.04761963 -0.01673763 10.34619904 -0.00469112 C11.69004511 -0.00983048 13.03388445 -0.01711189 14.37770844 -0.02637386 C18.02457175 -0.04489479 21.67070437 -0.0319458 25.31753731 -0.01228356 C29.13402536 0.00409899 32.95046699 -0.00470939 36.7669754 -0.00980282 C43.17615179 -0.01432425 49.58503639 0.00154884 55.99414825 0.02948856 C63.40379275 0.06154094 70.81291096 0.06152506 78.22259283 0.04427379 C85.35069979 0.02840945 92.47861382 0.03514159 99.60671234 0.05221081 C102.64016099 0.05908309 105.67345507 0.05804712 108.70690155 0.05066586 C112.27921709 0.04300398 115.85093379 0.05512482 119.4231472 0.08251476 C121.35939274 0.09268561 123.29571018 0.08321501 125.23195648 0.07318974 C126.3844136 0.08591419 127.53687073 0.09863865 128.72425079 0.1117487 C129.72565346 0.11455562 130.72705612 0.11736254 131.75880432 0.12025452 C135.12443518 0.77031251 136.31648402 1.93165675 138.37940216 4.62641239 C138.84858899 8.37990701 138.91076597 10.66489693 137.06690216 14.00141239 C134.05324951 16.90344827 131.02181089 16.75457685 127.0477829 16.76685429 C125.94166153 16.77256443 124.83554016 16.77827457 123.69589996 16.78415775 C122.48181458 16.78527561 121.26772919 16.78639347 120.01685333 16.7875452 C118.09944588 16.79499256 118.09944588 16.79499256 116.14330292 16.80259037 C112.63492565 16.81570684 109.1265675 16.82215791 105.61816955 16.82660103 C103.4255693 16.82953311 101.23297428 16.83363819 99.04037666 16.8381052 C92.17822964 16.85177847 85.31609455 16.86144582 78.45393485 16.86530709 C70.53636881 16.86978686 62.61897549 16.8873316 54.70146197 16.91630769 C48.57906179 16.9379352 42.45671017 16.94801195 36.33427221 16.94934821 C32.67876343 16.95039553 29.02341705 16.95628744 25.36794853 16.97416782 C21.28857088 16.99373357 17.20955398 16.9893553 13.13013458 16.9828577 C11.92212189 16.99207249 10.71410919 17.00128727 9.46949005 17.01078129 C-0.90982554 16.95891964 -0.90982554 16.95891964 -5.62059784 13.62641239 C-7.04722003 10.77316802 -6.93093652 8.7918669 -6.62059784 5.62641239 C-4.67846262 2.52573132 -3.6259637 0.86672917 0 0 Z " fill="#000000" transform="translate(322.62059783935547,284.3735876083374)"/>
<path d="M0 0 C1.09915237 -0.00426498 2.19830475 -0.00852997 3.33076477 -0.01292419 C4.53707047 -0.01247101 5.74337616 -0.01201782 6.98623657 -0.0115509 C8.25636093 -0.01490952 9.52648529 -0.01826813 10.83509827 -0.02172852 C14.32068717 -0.03056785 17.80625154 -0.03290661 21.29185057 -0.0335443 C24.20185182 -0.03449377 27.11184736 -0.03817254 30.02184641 -0.0417164 C36.88807186 -0.04986084 43.75428419 -0.05230066 50.62051392 -0.05158997 C57.70222902 -0.05098928 64.78386793 -0.06153925 71.86556375 -0.07733363 C77.94633511 -0.09041212 84.02708157 -0.09577373 90.10786688 -0.09513456 C93.73927019 -0.09487964 97.37060579 -0.09772708 101.00199509 -0.10831261 C105.05278476 -0.1197981 109.10340388 -0.11524488 113.15420532 -0.10920715 C114.35646255 -0.11482666 115.55871979 -0.12044617 116.79740906 -0.12623596 C117.90220108 -0.12204147 119.0069931 -0.11784698 120.14526367 -0.11352539 C121.1027973 -0.11407016 122.06033092 -0.11461493 123.04688072 -0.1151762 C125.98069152 0.16008432 128.08139739 0.78653354 130.69961548 2.13371277 C133.18000455 5.85429637 133.16298751 7.73167847 132.69961548 12.13371277 C130.64072515 14.83431382 129.44610708 15.98953094 126.07901764 16.63987064 C125.07761497 16.64267756 124.07621231 16.64548449 123.04446411 16.64837646 C121.31577843 16.66746315 121.31577843 16.66746315 119.5521698 16.68693542 C118.29178391 16.68040955 117.03139801 16.67388367 115.7328186 16.66716003 C114.3889725 16.67421908 113.04513435 16.68296405 111.7013092 16.69326782 C108.05456933 16.71577245 104.40826322 16.71282004 100.76148033 16.70394635 C97.71709956 16.69883726 94.67280036 16.70612825 91.62842798 16.71341842 C84.44716928 16.73042043 77.26612307 16.72684822 70.08486938 16.71012878 C62.67517016 16.69320065 55.26605974 16.70905029 47.85642481 16.74135166 C41.4945065 16.76803538 35.13277163 16.77532712 28.77080297 16.76683658 C24.97110773 16.76190448 21.17176693 16.76413793 17.37211609 16.7846241 C13.79973623 16.80296299 10.22820454 16.79704611 6.65587044 16.7724247 C4.71959263 16.76501966 2.78326982 16.7822856 0.84706116 16.80024719 C-0.30539597 16.78759323 -1.45785309 16.77493927 -2.64523315 16.76190186 C-3.64663582 16.76131555 -4.64803848 16.76072924 -5.67978668 16.76012516 C-9.30176616 15.89434835 -10.34710136 14.22131539 -12.30038452 11.13371277 C-12.80038452 8.07121277 -12.80038452 8.07121277 -12.30038452 5.13371277 C-8.75926885 0.6157376 -5.52722996 0.0096812 0 0 Z " fill="#000000" transform="translate(328.3003845214844,238.8662872314453)"/>
<path d="M0 0 C1.03021271 -0.00832352 1.03021271 -0.00832352 2.08123779 -0.01681519 C4.34060498 -0.02858034 6.59795237 -0.00437479 8.85717773 0.02148438 C10.43228565 0.02319624 12.00739642 0.02312902 13.58250427 0.0213623 C16.8786862 0.02301367 20.17418646 0.04167872 23.47021484 0.07324219 C27.69274156 0.11295247 31.91437734 0.11728269 36.1370554 0.10977936 C39.38763068 0.10670858 42.63800606 0.11883337 45.88853264 0.13591003 C47.44543135 0.14293464 49.00235271 0.14606522 50.55926704 0.1452179 C52.73523983 0.14701778 54.91014893 0.16841261 57.0859375 0.1953125 C58.3232814 0.20373169 59.56062531 0.21215088 60.83546448 0.2208252 C64.22228313 0.64585682 65.62920554 1.1726031 67.97827148 3.61523438 C68.85108297 7.04413664 69.30749977 9.50783014 68.29077148 12.92773438 C66.64451216 15.0443535 65.48543664 15.63726401 62.97827148 16.61523438 C59.91139221 16.87593079 59.91139221 16.87593079 56.26953125 16.88989258 C55.60398224 16.89500351 54.93843323 16.90011444 54.25271606 16.90538025 C52.05827782 16.919251 49.86415454 16.91832145 47.66967773 16.91601562 C46.14037459 16.91990394 44.61107252 16.92423889 43.08177185 16.92900085 C39.87820941 16.93645763 36.67475718 16.93617575 33.47119141 16.9309082 C29.37099486 16.92511409 25.27125013 16.94204542 21.17112827 16.96525288 C18.01321282 16.98000271 14.85540588 16.98086024 11.69746208 16.97774315 C10.18602542 16.97825573 8.67458258 16.98348165 7.1631794 16.99355507 C5.04729184 17.00592696 2.93228035 16.99912433 0.81640625 16.98754883 C-0.38620346 16.98817825 -1.58881317 16.98880768 -2.8278656 16.98945618 C-6.33214156 16.57886358 -8.21717848 15.719163 -11.02172852 13.61523438 C-12.46603706 10.72661728 -12.39861357 8.81875736 -12.02172852 5.61523438 C-8.32759916 0.90003106 -5.91326839 -0.00981188 0 0 Z " fill="#000000" transform="translate(328.021728515625,329.384765625)"/>
</svg>
